<?xml version="1.0" encoding="utf-8" standalone="no"?>
<!DOCTYPE svg PUBLIC "-//W3C//DTD SVG 1.1//EN"
  "http://www.w3.org/Graphics/SVG/1.1/DTD/svg11.dtd">
<svg xmlns:xlink="http://www.w3.org/1999/xlink" width="576pt" height="576pt" viewBox="0 0 576 576" xmlns="http://www.w3.org/2000/svg" version="1.1">
 <metadata>
  <rdf:RDF xmlns:dc="http://purl.org/dc/elements/1.1/" xmlns:cc="http://creativecommons.org/ns#" xmlns:rdf="http://www.w3.org/1999/02/22-rdf-syntax-ns#">
   <cc:Work>
    <dc:type rdf:resource="http://purl.org/dc/dcmitype/StillImage"/>
    <dc:date>2023-09-30T08:12:53.020753</dc:date>
    <dc:format>image/svg+xml</dc:format>
    <dc:creator>
     <cc:Agent>
      <dc:title>Matplotlib v3.8.0, https://matplotlib.org/</dc:title>
     </cc:Agent>
    </dc:creator>
   </cc:Work>
  </rdf:RDF>
 </metadata>
 <defs>
  <style type="text/css">*{stroke-linejoin: round; stroke-linecap: butt}</style>
 </defs>
 <g id="figure_1">
  <g id="patch_1">
   <path d="M 0 576 
L 576 576 
L 576 0 
L 0 0 
z
" style="fill: #ffffff"/>
  </g>
  <g id="axes_1">
   <g id="patch_2">
    <path d="M 362.429677 302.237088 
Q 401.356093 355.990313 439.954631 409.290774 
" clip-path="url(#p3b689448fb)" style="fill: none; stroke: #808080; stroke-opacity: 0.8; stroke-width: 0.5; stroke-linecap: round"/>
    <path d="M 439.228386 404.878001 
L 439.954631 409.290774 
L 435.988665 407.224106 
z
" clip-path="url(#p3b689448fb)" style="fill: #808080; fill-opacity: 0.8; stroke: #808080; stroke-opacity: 0.8; stroke-width: 0.5; stroke-linecap: round"/>
   </g>
   <g id="patch_3">
    <path d="M 356.170863 303.805383 
Q 346.19349 376.381648 336.29225 448.404105 
" clip-path="url(#p3b689448fb)" style="fill: none; stroke: #808080; stroke-opacity: 0.8; stroke-width: 0.5; stroke-linecap: round"/>
    <path d="M 338.818388 444.713763 
L 336.29225 448.404105 
L 334.855659 444.16899 
z
" clip-path="url(#p3b689448fb)" style="fill: #808080; fill-opacity: 0.8; stroke: #808080; stroke-opacity: 0.8; stroke-width: 0.5; stroke-linecap: round"/>
   </g>
   <g id="patch_4">
    <path d="M 350.460558 289.981717 
Q 234.046434 201.417296 118.077213 113.191345 
" clip-path="url(#p3b689448fb)" style="fill: none; stroke: #808080; stroke-opacity: 0.8; stroke-width: 0.5; stroke-linecap: round"/>
    <path d="M 120.049736 117.204965 
L 118.077213 113.191345 
L 122.471623 114.021499 
z
" clip-path="url(#p3b689448fb)" style="fill: #808080; fill-opacity: 0.8; stroke: #808080; stroke-opacity: 0.8; stroke-width: 0.5; stroke-linecap: round"/>
   </g>
   <g id="patch_5">
    <path d="M 361.324027 287.53148 
Q 391.523356 229.068907 421.466128 171.103001 
" clip-path="url(#p3b689448fb)" style="fill: none; stroke: #808080; stroke-opacity: 0.8; stroke-width: 0.5; stroke-linecap: round"/>
    <path d="M 417.853421 173.738974 
L 421.466128 171.103001 
L 421.407282 175.57475 
z
" clip-path="url(#p3b689448fb)" style="fill: #808080; fill-opacity: 0.8; stroke: #808080; stroke-opacity: 0.8; stroke-width: 0.5; stroke-linecap: round"/>
   </g>
   <g id="patch_6">
    <path d="M 359.329863 303.651758 
Q 378.359225 384.686288 397.260789 465.176604 
" clip-path="url(#p3b689448fb)" style="fill: none; stroke: #808080; stroke-opacity: 0.8; stroke-width: 0.5; stroke-linecap: round"/>
    <path d="M 398.293379 460.825311 
L 397.260789 465.176604 
L 394.399308 461.739756 
z
" clip-path="url(#p3b689448fb)" style="fill: #808080; fill-opacity: 0.8; stroke: #808080; stroke-opacity: 0.8; stroke-width: 0.5; stroke-linecap: round"/>
   </g>
   <g id="patch_7">
    <path d="M 365.640214 297.73012 
Q 406.936461 310.217404 447.697619 322.542887 
" clip-path="url(#p3b689448fb)" style="fill: none; stroke: #808080; stroke-opacity: 0.8; stroke-width: 0.5; stroke-linecap: round"/>
    <path d="M 444.447714 319.470735 
L 447.697619 322.542887 
L 443.289954 323.29952 
z
" clip-path="url(#p3b689448fb)" style="fill: #808080; fill-opacity: 0.8; stroke: #808080; stroke-opacity: 0.8; stroke-width: 0.5; stroke-linecap: round"/>
   </g>
   <g id="patch_8">
    <path d="M 365.32737 291.842371 
Q 418.508632 269.300204 471.175206 246.976199 
" clip-path="url(#p3b689448fb)" style="fill: none; stroke: #808080; stroke-opacity: 0.8; stroke-width: 0.5; stroke-linecap: round"/>
    <path d="M 466.711866 246.695842 
L 471.175206 246.976199 
L 468.272917 250.378656 
z
" clip-path="url(#p3b689448fb)" style="fill: #808080; fill-opacity: 0.8; stroke: #808080; stroke-opacity: 0.8; stroke-width: 0.5; stroke-linecap: round"/>
   </g>
   <g id="patch_9">
    <path d="M 349.479167 298.840514 
Q 318.209144 313.209366 287.447078 327.344807 
" clip-path="url(#p3b689448fb)" style="fill: none; stroke: #808080; stroke-opacity: 0.8; stroke-width: 0.5; stroke-linecap: round"/>
    <path d="M 291.916792 327.491978 
L 287.447078 327.344807 
L 290.246643 323.857339 
z
" clip-path="url(#p3b689448fb)" style="fill: #808080; fill-opacity: 0.8; stroke: #808080; stroke-opacity: 0.8; stroke-width: 0.5; stroke-linecap: round"/>
   </g>
   <g id="patch_10">
    <path d="M 440.282989 409.744201 
Q 401.356573 355.990976 362.758035 302.690515 
" clip-path="url(#p3b689448fb)" style="fill: none; stroke: #808080; stroke-opacity: 0.8; stroke-width: 0.5; stroke-linecap: round"/>
    <path d="M 363.48428 307.103288 
L 362.758035 302.690515 
L 366.724 304.757183 
z
" clip-path="url(#p3b689448fb)" style="fill: #808080; fill-opacity: 0.8; stroke: #808080; stroke-opacity: 0.8; stroke-width: 0.5; stroke-linecap: round"/>
   </g>
   <g id="patch_11">
    <path d="M 336.216254 448.956911 
Q 346.193627 376.380646 356.094867 304.358189 
" clip-path="url(#p3b689448fb)" style="fill: none; stroke: #808080; stroke-opacity: 0.8; stroke-width: 0.5; stroke-linecap: round"/>
    <path d="M 353.568729 308.048532 
L 356.094867 304.358189 
L 357.531458 308.593305 
z
" clip-path="url(#p3b689448fb)" style="fill: #808080; fill-opacity: 0.8; stroke: #808080; stroke-opacity: 0.8; stroke-width: 0.5; stroke-linecap: round"/>
   </g>
   <g id="patch_12">
    <path d="M 421.723501 170.604756 
Q 391.524172 229.067329 361.5814 287.033235 
" clip-path="url(#p3b689448fb)" style="fill: none; stroke: #808080; stroke-opacity: 0.8; stroke-width: 0.5; stroke-linecap: round"/>
    <path d="M 365.194107 284.397262 
L 361.5814 287.033235 
L 361.640246 282.561486 
z
" clip-path="url(#p3b689448fb)" style="fill: #808080; fill-opacity: 0.8; stroke: #808080; stroke-opacity: 0.8; stroke-width: 0.5; stroke-linecap: round"/>
   </g>
   <g id="patch_13">
    <path d="M 340.198511 156.416837 
Q 348.24355 221.522701 356.220033 286.073768 
" clip-path="url(#p3b689448fb)" style="fill: none; stroke: #808080; stroke-opacity: 0.8; stroke-width: 0.5; stroke-linecap: round"/>
    <path d="M 357.714393 281.858689 
L 356.220033 286.073768 
L 353.744587 282.349233 
z
" clip-path="url(#p3b689448fb)" style="fill: #808080; fill-opacity: 0.8; stroke: #808080; stroke-opacity: 0.8; stroke-width: 0.5; stroke-linecap: round"/>
   </g>
   <g id="patch_14">
    <path d="M 397.389444 465.724466 
Q 378.360082 384.689936 359.458518 304.199619 
" clip-path="url(#p3b689448fb)" style="fill: none; stroke: #808080; stroke-opacity: 0.8; stroke-width: 0.5; stroke-linecap: round"/>
    <path d="M 358.425928 308.550913 
L 359.458518 304.199619 
L 362.319999 307.636468 
z
" clip-path="url(#p3b689448fb)" style="fill: #808080; fill-opacity: 0.8; stroke: #808080; stroke-opacity: 0.8; stroke-width: 0.5; stroke-linecap: round"/>
   </g>
   <g id="patch_15">
    <path d="M 448.233181 322.704832 
Q 406.936935 310.217547 366.175777 297.892065 
" clip-path="url(#p3b689448fb)" style="fill: none; stroke: #808080; stroke-opacity: 0.8; stroke-width: 0.5; stroke-linecap: round"/>
    <path d="M 369.425682 300.964217 
L 366.175777 297.892065 
L 370.583441 297.135432 
z
" clip-path="url(#p3b689448fb)" style="fill: #808080; fill-opacity: 0.8; stroke: #808080; stroke-opacity: 0.8; stroke-width: 0.5; stroke-linecap: round"/>
   </g>
   <g id="patch_16">
    <path d="M 471.686092 246.759647 
Q 418.50483 269.301815 365.838256 291.62582 
" clip-path="url(#p3b689448fb)" style="fill: none; stroke: #808080; stroke-opacity: 0.8; stroke-width: 0.5; stroke-linecap: round"/>
    <path d="M 370.301596 291.906177 
L 365.838256 291.62582 
L 368.740546 288.223362 
z
" clip-path="url(#p3b689448fb)" style="fill: #808080; fill-opacity: 0.8; stroke: #808080; stroke-opacity: 0.8; stroke-width: 0.5; stroke-linecap: round"/>
   </g>
   <g id="patch_17">
    <path d="M 286.942069 327.576863 
Q 318.212092 313.208011 348.974159 299.07257 
" clip-path="url(#p3b689448fb)" style="fill: none; stroke: #808080; stroke-opacity: 0.8; stroke-width: 0.5; stroke-linecap: round"/>
    <path d="M 344.504445 298.925399 
L 348.974159 299.07257 
L 346.174594 302.560038 
z
" clip-path="url(#p3b689448fb)" style="fill: #808080; fill-opacity: 0.8; stroke: #808080; stroke-opacity: 0.8; stroke-width: 0.5; stroke-linecap: round"/>
   </g>
   <g id="PathCollection_1">
    <defs>
     <path id="meebbb43600" d="M 0 8.660254 
C 2.296726 8.660254 4.499694 7.747755 6.123724 6.123724 
C 7.747755 4.499694 8.660254 2.296726 8.660254 0 
C 8.660254 -2.296726 7.747755 -4.499694 6.123724 -6.123724 
C 4.499694 -7.747755 2.296726 -8.660254 0 -8.660254 
C -2.296726 -8.660254 -4.499694 -7.747755 -6.123724 -6.123724 
C -7.747755 -4.499694 -8.660254 -2.296726 -8.660254 0 
C -8.660254 2.296726 -7.747755 4.499694 -6.123724 6.123724 
C -4.499694 7.747755 -2.296726 8.660254 0 8.660254 
z
" style="stroke: #87ceeb; stroke-opacity: 0.8"/>
    </defs>
    <g clip-path="url(#p3b689448fb)">
     <use xlink:href="#meebbb43600" x="357.350652" y="295.223497" style="fill: #87ceeb; fill-opacity: 0.8; stroke: #87ceeb; stroke-opacity: 0.8"/>
     <use xlink:href="#meebbb43600" x="445.362013" y="416.757792" style="fill: #87ceeb; fill-opacity: 0.8; stroke: #87ceeb; stroke-opacity: 0.8"/>
     <use xlink:href="#meebbb43600" x="335.036465" y="457.538798" style="fill: #87ceeb; fill-opacity: 0.8; stroke: #87ceeb; stroke-opacity: 0.8"/>
     <use xlink:href="#meebbb43600" x="110.73719" y="107.607273" style="fill: #87ceeb; fill-opacity: 0.8; stroke: #87ceeb; stroke-opacity: 0.8"/>
     <use xlink:href="#meebbb43600" x="425.696876" y="162.912739" style="fill: #87ceeb; fill-opacity: 0.8; stroke: #87ceeb; stroke-opacity: 0.8"/>
     <use xlink:href="#meebbb43600" x="339.136265" y="147.820424" style="fill: #87ceeb; fill-opacity: 0.8; stroke: #87ceeb; stroke-opacity: 0.8"/>
     <use xlink:href="#meebbb43600" x="399.368655" y="474.152727" style="fill: #87ceeb; fill-opacity: 0.8; stroke: #87ceeb; stroke-opacity: 0.8"/>
     <use xlink:href="#meebbb43600" x="456.522743" y="325.211455" style="fill: #87ceeb; fill-opacity: 0.8; stroke: #87ceeb; stroke-opacity: 0.8"/>
     <use xlink:href="#meebbb43600" x="479.66281" y="243.378522" style="fill: #87ceeb; fill-opacity: 0.8; stroke: #87ceeb; stroke-opacity: 0.8"/>
     <use xlink:href="#meebbb43600" x="279.070584" y="331.19388" style="fill: #87ceeb; fill-opacity: 0.8; stroke: #87ceeb; stroke-opacity: 0.8"/>
    </g>
   </g>
   <g id="text_1">
    <g clip-path="url(#p3b689448fb)">
     <!-- 0 -->
     <g style="opacity: 0.8" transform="translate(353.871746 297.982872) scale(0.1 -0.1)">
      <defs>
       <path id="DejaVuSans-Bold-30" d="M 2944 2338 
Q 2944 3213 2780 3570 
Q 2616 3928 2228 3928 
Q 1841 3928 1675 3570 
Q 1509 3213 1509 2338 
Q 1509 1453 1675 1090 
Q 1841 728 2228 728 
Q 2613 728 2778 1090 
Q 2944 1453 2944 2338 
z
M 4147 2328 
Q 4147 1169 3647 539 
Q 3147 -91 2228 -91 
Q 1306 -91 806 539 
Q 306 1169 306 2328 
Q 306 3491 806 4120 
Q 1306 4750 2228 4750 
Q 3147 4750 3647 4120 
Q 4147 3491 4147 2328 
z
" transform="scale(0.015625)"/>
      </defs>
      <use xlink:href="#DejaVuSans-Bold-30"/>
     </g>
    </g>
   </g>
   <g id="text_2">
    <g clip-path="url(#p3b689448fb)">
     <!-- 1 -->
     <g style="opacity: 0.8" transform="translate(441.883107 419.517167) scale(0.1 -0.1)">
      <defs>
       <path id="DejaVuSans-Bold-31" d="M 750 831 
L 1813 831 
L 1813 3847 
L 722 3622 
L 722 4441 
L 1806 4666 
L 2950 4666 
L 2950 831 
L 4013 831 
L 4013 0 
L 750 0 
L 750 831 
z
" transform="scale(0.015625)"/>
      </defs>
      <use xlink:href="#DejaVuSans-Bold-31"/>
     </g>
    </g>
   </g>
   <g id="text_3">
    <g clip-path="url(#p3b689448fb)">
     <!-- 2 -->
     <g style="opacity: 0.8" transform="translate(331.557558 460.298173) scale(0.1 -0.1)">
      <defs>
       <path id="DejaVuSans-Bold-32" d="M 1844 884 
L 3897 884 
L 3897 0 
L 506 0 
L 506 884 
L 2209 2388 
Q 2438 2594 2547 2791 
Q 2656 2988 2656 3200 
Q 2656 3528 2436 3728 
Q 2216 3928 1850 3928 
Q 1569 3928 1234 3808 
Q 900 3688 519 3450 
L 519 4475 
Q 925 4609 1322 4679 
Q 1719 4750 2100 4750 
Q 2938 4750 3402 4381 
Q 3866 4013 3866 3353 
Q 3866 2972 3669 2642 
Q 3472 2313 2841 1759 
L 1844 884 
z
" transform="scale(0.015625)"/>
      </defs>
      <use xlink:href="#DejaVuSans-Bold-32"/>
     </g>
    </g>
   </g>
   <g id="text_4">
    <g clip-path="url(#p3b689448fb)">
     <!-- 3 -->
     <g style="opacity: 0.8" transform="translate(107.258284 110.366648) scale(0.1 -0.1)">
      <defs>
       <path id="DejaVuSans-Bold-33" d="M 2981 2516 
Q 3453 2394 3698 2092 
Q 3944 1791 3944 1325 
Q 3944 631 3412 270 
Q 2881 -91 1863 -91 
Q 1503 -91 1142 -33 
Q 781 25 428 141 
L 428 1069 
Q 766 900 1098 814 
Q 1431 728 1753 728 
Q 2231 728 2486 893 
Q 2741 1059 2741 1369 
Q 2741 1688 2480 1852 
Q 2219 2016 1709 2016 
L 1228 2016 
L 1228 2791 
L 1734 2791 
Q 2188 2791 2409 2933 
Q 2631 3075 2631 3366 
Q 2631 3634 2415 3781 
Q 2200 3928 1806 3928 
Q 1516 3928 1219 3862 
Q 922 3797 628 3669 
L 628 4550 
Q 984 4650 1334 4700 
Q 1684 4750 2022 4750 
Q 2931 4750 3382 4451 
Q 3834 4153 3834 3553 
Q 3834 3144 3618 2883 
Q 3403 2622 2981 2516 
z
" transform="scale(0.015625)"/>
      </defs>
      <use xlink:href="#DejaVuSans-Bold-33"/>
     </g>
    </g>
   </g>
   <g id="text_5">
    <g clip-path="url(#p3b689448fb)">
     <!-- 4 -->
     <g style="opacity: 0.8" transform="translate(422.21797 165.672114) scale(0.1 -0.1)">
      <defs>
       <path id="DejaVuSans-Bold-34" d="M 2356 3675 
L 1038 1722 
L 2356 1722 
L 2356 3675 
z
M 2156 4666 
L 3494 4666 
L 3494 1722 
L 4159 1722 
L 4159 850 
L 3494 850 
L 3494 0 
L 2356 0 
L 2356 850 
L 288 850 
L 288 1881 
L 2156 4666 
z
" transform="scale(0.015625)"/>
      </defs>
      <use xlink:href="#DejaVuSans-Bold-34"/>
     </g>
    </g>
   </g>
   <g id="text_6">
    <g clip-path="url(#p3b689448fb)">
     <!-- 5 -->
     <g style="opacity: 0.8" transform="translate(335.657358 150.579799) scale(0.1 -0.1)">
      <defs>
       <path id="DejaVuSans-Bold-35" d="M 678 4666 
L 3669 4666 
L 3669 3781 
L 1638 3781 
L 1638 3059 
Q 1775 3097 1914 3117 
Q 2053 3138 2203 3138 
Q 3056 3138 3531 2711 
Q 4006 2284 4006 1522 
Q 4006 766 3489 337 
Q 2972 -91 2053 -91 
Q 1656 -91 1267 -14 
Q 878 63 494 219 
L 494 1166 
Q 875 947 1217 837 
Q 1559 728 1863 728 
Q 2300 728 2551 942 
Q 2803 1156 2803 1522 
Q 2803 1891 2551 2103 
Q 2300 2316 1863 2316 
Q 1603 2316 1309 2248 
Q 1016 2181 678 2041 
L 678 4666 
z
" transform="scale(0.015625)"/>
      </defs>
      <use xlink:href="#DejaVuSans-Bold-35"/>
     </g>
    </g>
   </g>
   <g id="text_7">
    <g clip-path="url(#p3b689448fb)">
     <!-- 6 -->
     <g style="opacity: 0.8" transform="translate(395.889748 476.912102) scale(0.1 -0.1)">
      <defs>
       <path id="DejaVuSans-Bold-36" d="M 2316 2303 
Q 2000 2303 1842 2098 
Q 1684 1894 1684 1484 
Q 1684 1075 1842 870 
Q 2000 666 2316 666 
Q 2634 666 2792 870 
Q 2950 1075 2950 1484 
Q 2950 1894 2792 2098 
Q 2634 2303 2316 2303 
z
M 3803 4544 
L 3803 3681 
Q 3506 3822 3243 3889 
Q 2981 3956 2731 3956 
Q 2194 3956 1894 3657 
Q 1594 3359 1544 2772 
Q 1750 2925 1990 3001 
Q 2231 3078 2516 3078 
Q 3231 3078 3670 2659 
Q 4109 2241 4109 1563 
Q 4109 813 3618 361 
Q 3128 -91 2303 -91 
Q 1394 -91 895 523 
Q 397 1138 397 2266 
Q 397 3422 980 4083 
Q 1563 4744 2578 4744 
Q 2900 4744 3203 4694 
Q 3506 4644 3803 4544 
z
" transform="scale(0.015625)"/>
      </defs>
      <use xlink:href="#DejaVuSans-Bold-36"/>
     </g>
    </g>
   </g>
   <g id="text_8">
    <g clip-path="url(#p3b689448fb)">
     <!-- 7 -->
     <g style="opacity: 0.8" transform="translate(453.043837 327.97083) scale(0.1 -0.1)">
      <defs>
       <path id="DejaVuSans-Bold-37" d="M 428 4666 
L 3944 4666 
L 3944 3988 
L 2125 0 
L 953 0 
L 2675 3781 
L 428 3781 
L 428 4666 
z
" transform="scale(0.015625)"/>
      </defs>
      <use xlink:href="#DejaVuSans-Bold-37"/>
     </g>
    </g>
   </g>
   <g id="text_9">
    <g clip-path="url(#p3b689448fb)">
     <!-- 8 -->
     <g style="opacity: 0.8" transform="translate(476.183904 246.137897) scale(0.1 -0.1)">
      <defs>
       <path id="DejaVuSans-Bold-38" d="M 2228 2088 
Q 1891 2088 1709 1903 
Q 1528 1719 1528 1375 
Q 1528 1031 1709 848 
Q 1891 666 2228 666 
Q 2563 666 2741 848 
Q 2919 1031 2919 1375 
Q 2919 1722 2741 1905 
Q 2563 2088 2228 2088 
z
M 1350 2484 
Q 925 2613 709 2878 
Q 494 3144 494 3541 
Q 494 4131 934 4440 
Q 1375 4750 2228 4750 
Q 3075 4750 3515 4442 
Q 3956 4134 3956 3541 
Q 3956 3144 3739 2878 
Q 3522 2613 3097 2484 
Q 3572 2353 3814 2058 
Q 4056 1763 4056 1313 
Q 4056 619 3595 264 
Q 3134 -91 2228 -91 
Q 1319 -91 855 264 
Q 391 619 391 1313 
Q 391 1763 633 2058 
Q 875 2353 1350 2484 
z
M 1631 3419 
Q 1631 3141 1786 2991 
Q 1941 2841 2228 2841 
Q 2509 2841 2662 2991 
Q 2816 3141 2816 3419 
Q 2816 3697 2662 3845 
Q 2509 3994 2228 3994 
Q 1941 3994 1786 3844 
Q 1631 3694 1631 3419 
z
" transform="scale(0.015625)"/>
      </defs>
      <use xlink:href="#DejaVuSans-Bold-38"/>
     </g>
    </g>
   </g>
   <g id="text_10">
    <g clip-path="url(#p3b689448fb)">
     <!-- 9 -->
     <g style="opacity: 0.8" transform="translate(275.591678 333.953255) scale(0.1 -0.1)">
      <defs>
       <path id="DejaVuSans-Bold-39" d="M 641 103 
L 641 966 
Q 928 831 1190 764 
Q 1453 697 1709 697 
Q 2247 697 2547 995 
Q 2847 1294 2900 1881 
Q 2688 1725 2447 1647 
Q 2206 1569 1925 1569 
Q 1209 1569 770 1986 
Q 331 2403 331 3084 
Q 331 3838 820 4291 
Q 1309 4744 2131 4744 
Q 3044 4744 3544 4128 
Q 4044 3513 4044 2388 
Q 4044 1231 3459 570 
Q 2875 -91 1856 -91 
Q 1528 -91 1228 -42 
Q 928 6 641 103 
z
M 2125 2350 
Q 2441 2350 2600 2554 
Q 2759 2759 2759 3169 
Q 2759 3575 2600 3781 
Q 2441 3988 2125 3988 
Q 1809 3988 1650 3781 
Q 1491 3575 1491 3169 
Q 1491 2759 1650 2554 
Q 1809 2350 2125 2350 
z
" transform="scale(0.015625)"/>
      </defs>
      <use xlink:href="#DejaVuSans-Bold-39"/>
     </g>
    </g>
   </g>
   <g id="text_11">
    <!-- Network Map -->
    <g transform="translate(255.578438 63.12) scale(0.12 -0.12)">
     <defs>
      <path id="DejaVuSans-4e" d="M 628 4666 
L 1478 4666 
L 3547 763 
L 3547 4666 
L 4159 4666 
L 4159 0 
L 3309 0 
L 1241 3903 
L 1241 0 
L 628 0 
L 628 4666 
z
" transform="scale(0.015625)"/>
      <path id="DejaVuSans-65" d="M 3597 1894 
L 3597 1613 
L 953 1613 
Q 991 1019 1311 708 
Q 1631 397 2203 397 
Q 2534 397 2845 478 
Q 3156 559 3463 722 
L 3463 178 
Q 3153 47 2828 -22 
Q 2503 -91 2169 -91 
Q 1331 -91 842 396 
Q 353 884 353 1716 
Q 353 2575 817 3079 
Q 1281 3584 2069 3584 
Q 2775 3584 3186 3129 
Q 3597 2675 3597 1894 
z
M 3022 2063 
Q 3016 2534 2758 2815 
Q 2500 3097 2075 3097 
Q 1594 3097 1305 2825 
Q 1016 2553 972 2059 
L 3022 2063 
z
" transform="scale(0.015625)"/>
      <path id="DejaVuSans-74" d="M 1172 4494 
L 1172 3500 
L 2356 3500 
L 2356 3053 
L 1172 3053 
L 1172 1153 
Q 1172 725 1289 603 
Q 1406 481 1766 481 
L 2356 481 
L 2356 0 
L 1766 0 
Q 1100 0 847 248 
Q 594 497 594 1153 
L 594 3053 
L 172 3053 
L 172 3500 
L 594 3500 
L 594 4494 
L 1172 4494 
z
" transform="scale(0.015625)"/>
      <path id="DejaVuSans-77" d="M 269 3500 
L 844 3500 
L 1563 769 
L 2278 3500 
L 2956 3500 
L 3675 769 
L 4391 3500 
L 4966 3500 
L 4050 0 
L 3372 0 
L 2619 2869 
L 1863 0 
L 1184 0 
L 269 3500 
z
" transform="scale(0.015625)"/>
      <path id="DejaVuSans-6f" d="M 1959 3097 
Q 1497 3097 1228 2736 
Q 959 2375 959 1747 
Q 959 1119 1226 758 
Q 1494 397 1959 397 
Q 2419 397 2687 759 
Q 2956 1122 2956 1747 
Q 2956 2369 2687 2733 
Q 2419 3097 1959 3097 
z
M 1959 3584 
Q 2709 3584 3137 3096 
Q 3566 2609 3566 1747 
Q 3566 888 3137 398 
Q 2709 -91 1959 -91 
Q 1206 -91 779 398 
Q 353 888 353 1747 
Q 353 2609 779 3096 
Q 1206 3584 1959 3584 
z
" transform="scale(0.015625)"/>
      <path id="DejaVuSans-72" d="M 2631 2963 
Q 2534 3019 2420 3045 
Q 2306 3072 2169 3072 
Q 1681 3072 1420 2755 
Q 1159 2438 1159 1844 
L 1159 0 
L 581 0 
L 581 3500 
L 1159 3500 
L 1159 2956 
Q 1341 3275 1631 3429 
Q 1922 3584 2338 3584 
Q 2397 3584 2469 3576 
Q 2541 3569 2628 3553 
L 2631 2963 
z
" transform="scale(0.015625)"/>
      <path id="DejaVuSans-6b" d="M 581 4863 
L 1159 4863 
L 1159 1991 
L 2875 3500 
L 3609 3500 
L 1753 1863 
L 3688 0 
L 2938 0 
L 1159 1709 
L 1159 0 
L 581 0 
L 581 4863 
z
" transform="scale(0.015625)"/>
      <path id="DejaVuSans-20" transform="scale(0.015625)"/>
      <path id="DejaVuSans-4d" d="M 628 4666 
L 1569 4666 
L 2759 1491 
L 3956 4666 
L 4897 4666 
L 4897 0 
L 4281 0 
L 4281 4097 
L 3078 897 
L 2444 897 
L 1241 4097 
L 1241 0 
L 628 0 
L 628 4666 
z
" transform="scale(0.015625)"/>
      <path id="DejaVuSans-61" d="M 2194 1759 
Q 1497 1759 1228 1600 
Q 959 1441 959 1056 
Q 959 750 1161 570 
Q 1363 391 1709 391 
Q 2188 391 2477 730 
Q 2766 1069 2766 1631 
L 2766 1759 
L 2194 1759 
z
M 3341 1997 
L 3341 0 
L 2766 0 
L 2766 531 
Q 2569 213 2275 61 
Q 1981 -91 1556 -91 
Q 1019 -91 701 211 
Q 384 513 384 1019 
Q 384 1609 779 1909 
Q 1175 2209 1959 2209 
L 2766 2209 
L 2766 2266 
Q 2766 2663 2505 2880 
Q 2244 3097 1772 3097 
Q 1472 3097 1187 3025 
Q 903 2953 641 2809 
L 641 3341 
Q 956 3463 1253 3523 
Q 1550 3584 1831 3584 
Q 2591 3584 2966 3190 
Q 3341 2797 3341 1997 
z
" transform="scale(0.015625)"/>
      <path id="DejaVuSans-70" d="M 1159 525 
L 1159 -1331 
L 581 -1331 
L 581 3500 
L 1159 3500 
L 1159 2969 
Q 1341 3281 1617 3432 
Q 1894 3584 2278 3584 
Q 2916 3584 3314 3078 
Q 3713 2572 3713 1747 
Q 3713 922 3314 415 
Q 2916 -91 2278 -91 
Q 1894 -91 1617 61 
Q 1341 213 1159 525 
z
M 3116 1747 
Q 3116 2381 2855 2742 
Q 2594 3103 2138 3103 
Q 1681 3103 1420 2742 
Q 1159 2381 1159 1747 
Q 1159 1113 1420 752 
Q 1681 391 2138 391 
Q 2594 391 2855 752 
Q 3116 1113 3116 1747 
z
" transform="scale(0.015625)"/>
     </defs>
     <use xlink:href="#DejaVuSans-4e"/>
     <use xlink:href="#DejaVuSans-65" x="74.804688"/>
     <use xlink:href="#DejaVuSans-74" x="136.328125"/>
     <use xlink:href="#DejaVuSans-77" x="175.537109"/>
     <use xlink:href="#DejaVuSans-6f" x="257.324219"/>
     <use xlink:href="#DejaVuSans-72" x="318.505859"/>
     <use xlink:href="#DejaVuSans-6b" x="359.619141"/>
     <use xlink:href="#DejaVuSans-20" x="417.529297"/>
     <use xlink:href="#DejaVuSans-4d" x="449.316406"/>
     <use xlink:href="#DejaVuSans-61" x="535.595703"/>
     <use xlink:href="#DejaVuSans-70" x="596.875"/>
    </g>
   </g>
  </g>
 </g>
 <defs>
  <clipPath id="p3b689448fb">
   <rect x="72" y="69.12" width="446.4" height="443.52"/>
  </clipPath>
 </defs>
</svg>
